PathFileType	4	(X/Y/Z)	pose_F01_0-96.trc
DataRate	CameraRate	NumFrames	NumMarkers	Units	OrigDataRate	OrigDataStartFrame	OrigNumFrames
30	30	8	21	m	30	60	96
Frame#	Time	CHip			RHip			RKnee			RAnkle			RBigToe			RSmallToe			RHeel			LHip			LKnee			LAnkle			LBigToe			LSmallToe			LHeel			Neck			Nose			RShoulder			RElbow			RWrist			LShoulder			LElbow			LWrist			
		X1	Y1	Z1	X2	Y2	Z2	X3	Y3	Z3	X4	Y4	Z4	X5	Y5	Z5	X6	Y6	Z6	X7	Y7	Z7	X8	Y8	Z8	X9	Y9	Z9	X10	Y10	Z10	X11	Y11	Z11	X12	Y12	Z12	X13	Y13	Z13	X14	Y14	Z14	X15	Y15	Z15	X16	Y16	Z16	X17	Y17	Z17	X18	Y18	Z18	X19	Y19	Z19	X20	Y20	Z20	X21	Y21	Z21	
60	2.0	-0.2310277995264215	1.8841484254761167	-0.45125830255745264	-0.23702107476361756	1.8846465913140873	-0.38630743172945275	-0.26002135566272755	1.7631619089930903	-0.3403905105047281	-0.21191189906169994	1.7091681992379386	-0.3965538563654879	-0.22659267255163043	1.6618969597063291	-0.3779899336703998	-0.22185050449105623	1.6668615101750466	-0.35587354616372224	-0.21103847170793813	1.673093402419916	-0.3947106572120422	-0.22011289855898025	1.8823446308656493	-0.520294209696883	-0.22785954245851164	1.751805225683535	-0.4712439576125397	-0.21294865884421604	1.6153501343876044	-0.4755974245239938	-0.2326584991100561	1.5582621996679809	-0.43216141299040983	-0.22566426523641586	1.5615345855680474	-0.4673677314224992	-0.20633842971817273	1.5980072529329643	-0.47558857313031805	-0.20957220697295653	2.0407142215756235	-0.5048167768401496	-0.2315351430766169	2.0970589078554815	-0.4978111974657051	-0.21448195587273972	2.034215037574345	-0.42541705409182523	-0.21939660018717583	1.9906407592425885	-0.2855062519837048	-1.9344446005812022	1.9236481879418141	1.8944104303064295	-0.20375891124332607	2.047748484806274	-0.5954401367705505	-0.18368346497377241	2.0696660006330445	-0.7067903200600271	-0.2270841408906268	1.9336757432799505	-0.5897974528512852
61	2.033333333333333	-0.2309423389127725	1.871399139810315	-0.4518907716328841	-0.23781100009655476	1.8712747165516488	-0.3900585807867475	-0.2681113693836199	1.7606828575326605	-0.34132917860036477	-0.2193462293200648	1.6908550219150291	-0.3806352164132408	-0.2299302859926788	1.6500222647870542	-0.3721583303872234	-0.22587024688577245	1.6563223600010157	-0.3449970227733327	-0.21091579784227862	1.690430405014365	-0.3949359300120122	-0.22177654855152049	1.8694000223917766	-0.5188783370867932	-0.22887172529364547	1.7416713363463867	-0.4695597535390733	-0.20742627249929407	1.6155664590966379	-0.4772538482017301	-0.23119528943539056	1.553155963764383	-0.4318410729963923	-0.22292755052589888	1.55566713748088	-0.46836668283948324	-0.19808087842054292	1.5934734257940804	-0.47894920817929226	-0.20943898724858823	2.0237949549670793	-0.508378571720109	-0.23217450153266936	2.0869679919690407	-0.49816674807333977	-0.21721365547483	2.01709920161727	-0.4206308835206374	-0.2176972690221881	1.9668638339527607	-0.2961666425976548	-2.176916500252032	1.9307598479453392	2.210766755708714	-0.1983820822005817	2.02931494145411	-0.6002258514617181	-0.19061092552262066	2.0368085065642556	-0.6993293294490409	-0.2276992287798525	1.9428690541702833	-0.5911487324022036
62	2.066666666666667	-0.22836513274364592	1.846244165379539	-0.44883333384861834	-0.2344276818177961	1.8461688216153669	-0.3835635727280114	-0.25926733564689247	1.7263715305133083	-0.3358804865861321	-0.22254137763402848	1.6394227211355124	-0.36522935712409316	-0.2424833563947254	1.5989928514385696	-0.32740113934933934	-0.2402143337557809	1.6080843934371867	-0.3073739930309426	-0.21718591994199113	1.6383050877609044	-0.3895642043515081	-0.2183054645319124	1.8448711167126595	-0.5130143684894117	-0.22711991800316136	1.7156869970206141	-0.467352852221165	-0.2024720833718425	1.5872680500788219	-0.47425459508561507	-0.22973207976072502	1.5480497278607852	-0.4315207330023748	-0.2201908358153819	1.5497996893937125	-0.4693656342564672	-0.19401400106576183	1.5807770283805378	-0.4779013625270799	-0.2157950615843292	2.0042662186092532	-0.4970791834043278	-0.2347543715594507	2.068043754774891	-0.4908870419060581	-0.223361702957551	1.9969730470717915	-0.4090085804087501	-0.2159979378572004	1.943086908662933	-0.30682703321160487	-2.4193883999228625	1.9378715079488644	2.527123081110998	-0.20297821472174757	2.010859456529853	-0.5913552614060464	-0.1975383860714689	2.003951012495467	-0.6918683388380549	-0.22831431666907814	1.952062365060616	-0.5925000119531219
63	2.1	-0.22652097462161658	1.8355994759980414	-0.4438165996040706	-0.2341819113646612	1.8350164745947835	-0.3757795950582223	-0.2496925332623405	1.7109203881483612	-0.33984155745748673	-0.22119472281287764	1.6203830051888752	-0.35969600966000503	-0.24468594867935997	1.5779836981241064	-0.32824288865494033	-0.24231096407860958	1.5869471271135	-0.3080219138096715	-0.21520032716045037	1.615770649828481	-0.3796339617021455	-0.21724082715677417	1.8359671081441602	-0.5115854946518116	-0.22665788968040787	1.708640937769884	-0.4713761966609421	-0.20414795326467206	1.5854427244198217	-0.47225068461132025	-0.23176628709977137	1.5450707708503408	-0.42907131624769157	-0.22334634870408523	1.5475274185260341	-0.46982538918329975	-0.19291621884378626	1.5798405889374316	-0.4749546480217798	-0.2175183831905325	1.993802699607694	-0.4907512908976729	-0.23365297769474772	2.060731716049973	-0.48400777601808775	-0.2246699906050139	1.9887389435546337	-0.4024570132395095	-0.21429860669221268	1.919309983373105	-0.31748742382555495	-0.22485811737873007	1.9598155838120428	-0.22442452094682636	-0.20697401592394815	1.9993927020451845	-0.5832492941758874	-0.20446584662031714	1.9710935184266787	-0.6844073482270687	-0.2289294045583038	1.9612556759509487	-0.5938512915040403
64	2.1333333333333333	-0.23085159085110152	1.8337150232097186	-0.44241643207731607	-0.2377759713403595	1.8346806131789095	-0.3803064247107282	-0.2377364213449752	1.7019406841063467	-0.36150703702103143	-0.2157285216797102	1.5926588671084656	-0.35921842447142904	-0.24468594867935997	1.5779836981241064	-0.32824288865494033	-0.24231096407860958	1.5869471271135	-0.3080219138096715	-0.2119865910048434	1.5867399058686322	-0.37671428049030997	-0.22363287191174241	1.834277493114739	-0.5078991752944358	-0.222391048109658	1.7023585257132394	-0.47095900100103666	-0.2030458521666906	1.5818924868303603	-0.47341941510698704	-0.22824422637756472	1.5494303863343348	-0.4430634033853282	-0.22063109534583897	1.5517080794672682	-0.4783421406899116	-0.19300045768091442	1.5774448847898193	-0.47039471060631116	-0.21817790320038358	1.9880999084813331	-0.4828249694249914	-0.23339971744675253	2.058550385213916	-0.47347947226048115	-0.22727985118184388	1.9837313955061806	-0.3927557676082053	-0.24167563975061204	1.9210615060260392	-0.2956152208375306	-0.24153251492499067	1.9673988684808328	-0.2469345687647836	-0.20394803626951855	1.9949167800491139	-0.571950745919131	-0.21139330716916538	1.93823602435789	-0.6769463576160827	-0.22954449244752947	1.9704489868412816	-0.5952025710549587
65	2.1666666666666665	-0.23089203671681008	1.8392032032552903	-0.4379088656976681	-0.23500424901857284	1.8365964586358123	-0.3739313816350967	-0.2334850786996486	1.706811375783169	-0.3624201384585213	-0.2152070245695058	1.5895576717420457	-0.35931385466673804	-0.24468594867935997	1.5779836981241064	-0.32824288865494033	-0.24231096407860958	1.5869471271135	-0.3080219138096715	-0.21099802066208842	1.5807156709157246	-0.3769976486451038	-0.22290334304549833	1.8399007320839957	-0.5000927846462544	-0.2237797006060856	1.7087018945883417	-0.4699792901853476	-0.20135465423095372	1.5863119010097424	-0.47559197606744097	-0.2296158813451157	1.5510751224685084	-0.43753599920282327	-0.22176956861971173	1.5524110827712785	-0.47277628379187603	-0.18996701202067656	1.5800004955850175	-0.4695772080032547	-0.21613272233716507	1.9915312898300488	-0.47686661037729444	-0.2343533336651459	2.059908681297425	-0.46870630968513993	-0.226197969681771	1.9876736478210566	-0.3903075247198999	-0.24831245805574056	1.9343903902186164	-0.2658158197300367	-0.24448527663096792	1.985378249603518	-0.2601714701225393	-0.205701346637878	1.99582028724807	-0.5691378715573417	-0.20172726906265107	1.9181485066659927	-0.6226130500736675	-1.5869448515011195	1.8777675693362834	0.8929679214983313
66	2.2	-0.23197243559934663	1.837995389733911	-0.4320873198013995	-0.23585353454804722	1.8336166226442432	-0.3679449424759902	-0.22692883194320426	1.703795939340377	-0.3647288764240445	-0.21483329302840173	1.5849574153858355	-0.3592207317189598	-0.24468594867935997	1.5779836981241064	-0.32824288865494033	-0.24231096407860958	1.5869471271135	-0.3080219138096715	-0.210056034175832	1.5783897344742126	-0.3736478045109982	-0.22504211874870253	1.8382341122907464	-0.488850667915685	-0.22529158100130683	1.7101828043174558	-0.46404001299346886	-0.20387388663563547	1.5865092286335354	-0.472742192505627	-0.22969176619429843	1.5545182285905867	-0.43777652663697125	-0.22108995136282997	1.5540364667380462	-0.4695003907517025	-0.19441893750413783	1.579941822376568	-0.47326297701982895	-0.2192193636411629	1.992861848074443	-0.470129302071394	-0.23817782375497373	2.062462528479097	-0.4654754505686686	-0.2281343742660326	1.9889694559211362	-0.38050175452603735	-0.24503891807936548	1.9448747723233588	-0.25045629228132715	-0.24039583870376388	2.0034553105860047	-0.2538202346024628	-0.2041257131574309	1.997126146212182	-0.563667313739198	-0.2039751393502529	1.9165874964998812	-0.5999370207959049	-0.22607272591756958	1.9676381885677598	-0.5656258129252897
67	2.2333333333333334	-0.22859324700182038	1.8387753363975148	-0.42748971368826155	-0.2352047418596929	1.8354187060909362	-0.36455737735032956	-0.22985646509095892	1.7026945555816946	-0.35656138001293924	-0.21633665202406632	1.5850978120100379	-0.3584416040903513	-0.24468594867935997	1.5779836981241064	-0.32824288865494033	-0.24231096407860958	1.5869471271135	-0.3080219138096715	-0.20994046793961005	1.5780327915531127	-0.37394009550133583	-0.2225230815388456	1.8412776476640282	-0.48800470667944734	-0.22751961196593218	1.7090743733699039	-0.4613270775192356	-0.20415294919145544	1.585220500922893	-0.4722276906270754	-0.22571529504592114	1.5525737109823394	-0.4415452157977204	-0.21901584472463015	1.5547559957567363	-0.47149630104266277	-0.19536193333677979	1.578951405233221	-0.47666139037639016	-0.21744386603886118	1.994224989731585	-0.46468091035852704	-0.23436800237722227	2.0612492609976196	-0.4614927711145222	-0.22603911214377165	1.9921701182267366	-0.37494925099865417	-0.2290578527824097	1.9417404585195164	-0.26867430909467466	-0.24121389228869222	1.985868221212672	-0.27340353260129274	-0.20744290708007337	1.9983238682782523	-0.5567604588638427	-0.20796088242174157	1.9251006175403695	-0.5877079692882459	-0.21715749701222198	1.981069572634567	-0.5583319212424239
